<svg baseProfile="full" height="400" version="1.1" width="800" xmlns="http://www.w3.org/2000/svg" xmlns:ev="http://www.w3.org/2001/xml-events" xmlns:xlink="http://www.w3.org/1999/xlink"><defs /><rect fill="#000000" fill-opacity="0.0" height="400" rx="20" ry="20" width="800" x="0" y="0" /><text fill="#cdd6f4" fill-opacity="1" style="font-size: 20px; font-family: Arial" text-anchor="middle" x="400.0" y="30.0">Vince Warren Pradas's Repo Traffic Stats</text><line stroke="#414868" stroke-opacity="1" x1="60" x2="750" y1="320" y2="320" /><line stroke="#414868" stroke-opacity="1" x1="60" x2="60" y1="60" y2="320" /><line opacity="0.5" stroke="#414868" stroke-dasharray="5,5" stroke-opacity="1" stroke-width="1" x1="60" x2="750" y1="320.0" y2="320.0" /><text fill="#cdd6f4" fill-opacity="1" style="font-size: 12px; font-family: Arial" text-anchor="end" x="50" y="325.0">0</text><line opacity="0.5" stroke="#414868" stroke-dasharray="5,5" stroke-opacity="1" stroke-width="1" x1="60" x2="750" y1="255.0" y2="255.0" /><text fill="#cdd6f4" fill-opacity="1" style="font-size: 12px; font-family: Arial" text-anchor="end" x="50" y="260.0">50</text><line opacity="0.5" stroke="#414868" stroke-dasharray="5,5" stroke-opacity="1" stroke-width="1" x1="60" x2="750" y1="190.0" y2="190.0" /><text fill="#cdd6f4" fill-opacity="1" style="font-size: 12px; font-family: Arial" text-anchor="end" x="50" y="195.0">100</text><line opacity="0.5" stroke="#414868" stroke-dasharray="5,5" stroke-opacity="1" stroke-width="1" x1="60" x2="750" y1="125.0" y2="125.0" /><text fill="#cdd6f4" fill-opacity="1" style="font-size: 12px; font-family: Arial" text-anchor="end" x="50" y="130.0">150</text><line opacity="0.5" stroke="#414868" stroke-dasharray="5,5" stroke-opacity="1" stroke-width="1" x1="60" x2="750" y1="60.0" y2="60.0" /><text fill="#cdd6f4" fill-opacity="1" style="font-size: 12px; font-family: Arial" text-anchor="end" x="50" y="65.0">200</text><line opacity="0.5" stroke="#414868" stroke-dasharray="5,5" stroke-opacity="1" stroke-width="1" x1="60.0" x2="60.0" y1="60" y2="320" /><line opacity="0.5" stroke="#414868" stroke-dasharray="5,5" stroke-opacity="1" stroke-width="1" x1="78.64864864864865" x2="78.64864864864865" y1="60" y2="320" /><line opacity="0.5" stroke="#414868" stroke-dasharray="5,5" stroke-opacity="1" stroke-width="1" x1="97.29729729729729" x2="97.29729729729729" y1="60" y2="320" /><line opacity="0.5" stroke="#414868" stroke-dasharray="5,5" stroke-opacity="1" stroke-width="1" x1="115.94594594594595" x2="115.94594594594595" y1="60" y2="320" /><line opacity="0.5" stroke="#414868" stroke-dasharray="5,5" stroke-opacity="1" stroke-width="1" x1="134.59459459459458" x2="134.59459459459458" y1="60" y2="320" /><line opacity="0.5" stroke="#414868" stroke-dasharray="5,5" stroke-opacity="1" stroke-width="1" x1="153.24324324324323" x2="153.24324324324323" y1="60" y2="320" /><line opacity="0.5" stroke="#414868" stroke-dasharray="5,5" stroke-opacity="1" stroke-width="1" x1="171.8918918918919" x2="171.8918918918919" y1="60" y2="320" /><line opacity="0.5" stroke="#414868" stroke-dasharray="5,5" stroke-opacity="1" stroke-width="1" x1="190.54054054054055" x2="190.54054054054055" y1="60" y2="320" /><line opacity="0.5" stroke="#414868" stroke-dasharray="5,5" stroke-opacity="1" stroke-width="1" x1="209.1891891891892" x2="209.1891891891892" y1="60" y2="320" /><line opacity="0.5" stroke="#414868" stroke-dasharray="5,5" stroke-opacity="1" stroke-width="1" x1="227.83783783783784" x2="227.83783783783784" y1="60" y2="320" /><line opacity="0.5" stroke="#414868" stroke-dasharray="5,5" stroke-opacity="1" stroke-width="1" x1="246.48648648648648" x2="246.48648648648648" y1="60" y2="320" /><line opacity="0.5" stroke="#414868" stroke-dasharray="5,5" stroke-opacity="1" stroke-width="1" x1="265.1351351351351" x2="265.1351351351351" y1="60" y2="320" /><line opacity="0.5" stroke="#414868" stroke-dasharray="5,5" stroke-opacity="1" stroke-width="1" x1="283.7837837837838" x2="283.7837837837838" y1="60" y2="320" /><line opacity="0.5" stroke="#414868" stroke-dasharray="5,5" stroke-opacity="1" stroke-width="1" x1="302.43243243243245" x2="302.43243243243245" y1="60" y2="320" /><line opacity="0.5" stroke="#414868" stroke-dasharray="5,5" stroke-opacity="1" stroke-width="1" x1="321.0810810810811" x2="321.0810810810811" y1="60" y2="320" /><line opacity="0.5" stroke="#414868" stroke-dasharray="5,5" stroke-opacity="1" stroke-width="1" x1="339.72972972972974" x2="339.72972972972974" y1="60" y2="320" /><line opacity="0.5" stroke="#414868" stroke-dasharray="5,5" stroke-opacity="1" stroke-width="1" x1="358.3783783783784" x2="358.3783783783784" y1="60" y2="320" /><line opacity="0.5" stroke="#414868" stroke-dasharray="5,5" stroke-opacity="1" stroke-width="1" x1="377.02702702702703" x2="377.02702702702703" y1="60" y2="320" /><line opacity="0.5" stroke="#414868" stroke-dasharray="5,5" stroke-opacity="1" stroke-width="1" x1="395.6756756756757" x2="395.6756756756757" y1="60" y2="320" /><line opacity="0.5" stroke="#414868" stroke-dasharray="5,5" stroke-opacity="1" stroke-width="1" x1="414.3243243243243" x2="414.3243243243243" y1="60" y2="320" /><line opacity="0.5" stroke="#414868" stroke-dasharray="5,5" stroke-opacity="1" stroke-width="1" x1="432.97297297297297" x2="432.97297297297297" y1="60" y2="320" /><line opacity="0.5" stroke="#414868" stroke-dasharray="5,5" stroke-opacity="1" stroke-width="1" x1="451.6216216216216" x2="451.6216216216216" y1="60" y2="320" /><line opacity="0.5" stroke="#414868" stroke-dasharray="5,5" stroke-opacity="1" stroke-width="1" x1="470.27027027027026" x2="470.27027027027026" y1="60" y2="320" /><line opacity="0.5" stroke="#414868" stroke-dasharray="5,5" stroke-opacity="1" stroke-width="1" x1="488.9189189189189" x2="488.9189189189189" y1="60" y2="320" /><line opacity="0.5" stroke="#414868" stroke-dasharray="5,5" stroke-opacity="1" stroke-width="1" x1="507.5675675675676" x2="507.5675675675676" y1="60" y2="320" /><line opacity="0.5" stroke="#414868" stroke-dasharray="5,5" stroke-opacity="1" stroke-width="1" x1="526.2162162162163" x2="526.2162162162163" y1="60" y2="320" /><line opacity="0.5" stroke="#414868" stroke-dasharray="5,5" stroke-opacity="1" stroke-width="1" x1="544.8648648648649" x2="544.8648648648649" y1="60" y2="320" /><line opacity="0.5" stroke="#414868" stroke-dasharray="5,5" stroke-opacity="1" stroke-width="1" x1="563.5135135135135" x2="563.5135135135135" y1="60" y2="320" /><line opacity="0.5" stroke="#414868" stroke-dasharray="5,5" stroke-opacity="1" stroke-width="1" x1="582.1621621621622" x2="582.1621621621622" y1="60" y2="320" /><line opacity="0.5" stroke="#414868" stroke-dasharray="5,5" stroke-opacity="1" stroke-width="1" x1="600.8108108108108" x2="600.8108108108108" y1="60" y2="320" /><line opacity="0.5" stroke="#414868" stroke-dasharray="5,5" stroke-opacity="1" stroke-width="1" x1="619.4594594594595" x2="619.4594594594595" y1="60" y2="320" /><line opacity="0.5" stroke="#414868" stroke-dasharray="5,5" stroke-opacity="1" stroke-width="1" x1="638.1081081081081" x2="638.1081081081081" y1="60" y2="320" /><line opacity="0.5" stroke="#414868" stroke-dasharray="5,5" stroke-opacity="1" stroke-width="1" x1="656.7567567567568" x2="656.7567567567568" y1="60" y2="320" /><line opacity="0.5" stroke="#414868" stroke-dasharray="5,5" stroke-opacity="1" stroke-width="1" x1="675.4054054054054" x2="675.4054054054054" y1="60" y2="320" /><line opacity="0.5" stroke="#414868" stroke-dasharray="5,5" stroke-opacity="1" stroke-width="1" x1="694.0540540540541" x2="694.0540540540541" y1="60" y2="320" /><line opacity="0.5" stroke="#414868" stroke-dasharray="5,5" stroke-opacity="1" stroke-width="1" x1="712.7027027027027" x2="712.7027027027027" y1="60" y2="320" /><line opacity="0.5" stroke="#414868" stroke-dasharray="5,5" stroke-opacity="1" stroke-width="1" x1="731.3513513513514" x2="731.3513513513514" y1="60" y2="320" /><line opacity="0.5" stroke="#414868" stroke-dasharray="5,5" stroke-opacity="1" stroke-width="1" x1="750.0" x2="750.0" y1="60" y2="320" /><circle cx="60.0" cy="318.7" fill="#8aadf4" fill-opacity="1" r="4" /><circle cx="78.64864864864865" cy="320.0" fill="#8aadf4" fill-opacity="1" r="4" /><circle cx="97.29729729729729" cy="320.0" fill="#8aadf4" fill-opacity="1" r="4" /><circle cx="115.94594594594595" cy="320.0" fill="#8aadf4" fill-opacity="1" r="4" /><circle cx="134.59459459459458" cy="320.0" fill="#8aadf4" fill-opacity="1" r="4" /><circle cx="153.24324324324323" cy="320.0" fill="#8aadf4" fill-opacity="1" r="4" /><circle cx="171.8918918918919" cy="320.0" fill="#8aadf4" fill-opacity="1" r="4" /><circle cx="190.54054054054055" cy="320.0" fill="#8aadf4" fill-opacity="1" r="4" /><circle cx="209.1891891891892" cy="320.0" fill="#8aadf4" fill-opacity="1" r="4" /><circle cx="227.83783783783784" cy="320.0" fill="#8aadf4" fill-opacity="1" r="4" /><circle cx="246.48648648648648" cy="320.0" fill="#8aadf4" fill-opacity="1" r="4" /><circle cx="265.1351351351351" cy="320.0" fill="#8aadf4" fill-opacity="1" r="4" /><circle cx="283.7837837837838" cy="320.0" fill="#8aadf4" fill-opacity="1" r="4" /><circle cx="302.43243243243245" cy="320.0" fill="#8aadf4" fill-opacity="1" r="4" /><circle cx="321.0810810810811" cy="317.4" fill="#8aadf4" fill-opacity="1" r="4" /><circle cx="339.72972972972974" cy="320.0" fill="#8aadf4" fill-opacity="1" r="4" /><circle cx="358.3783783783784" cy="320.0" fill="#8aadf4" fill-opacity="1" r="4" /><circle cx="377.02702702702703" cy="320.0" fill="#8aadf4" fill-opacity="1" r="4" /><circle cx="395.6756756756757" cy="320.0" fill="#8aadf4" fill-opacity="1" r="4" /><circle cx="414.3243243243243" cy="320.0" fill="#8aadf4" fill-opacity="1" r="4" /><circle cx="432.97297297297297" cy="320.0" fill="#8aadf4" fill-opacity="1" r="4" /><circle cx="451.6216216216216" cy="320.0" fill="#8aadf4" fill-opacity="1" r="4" /><circle cx="470.27027027027026" cy="317.4" fill="#8aadf4" fill-opacity="1" r="4" /><circle cx="488.9189189189189" cy="317.4" fill="#8aadf4" fill-opacity="1" r="4" /><circle cx="507.5675675675676" cy="309.6" fill="#8aadf4" fill-opacity="1" r="4" /><circle cx="526.2162162162163" cy="310.9" fill="#8aadf4" fill-opacity="1" r="4" /><circle cx="544.8648648648649" cy="316.1" fill="#8aadf4" fill-opacity="1" r="4" /><circle cx="563.5135135135135" cy="320.0" fill="#8aadf4" fill-opacity="1" r="4" /><circle cx="582.1621621621622" cy="312.2" fill="#8aadf4" fill-opacity="1" r="4" /><circle cx="600.8108108108108" cy="316.1" fill="#8aadf4" fill-opacity="1" r="4" /><circle cx="619.4594594594595" cy="316.1" fill="#8aadf4" fill-opacity="1" r="4" /><circle cx="638.1081081081081" cy="102.9" fill="#8aadf4" fill-opacity="1" r="4" /><circle cx="656.7567567567568" cy="140.6" fill="#8aadf4" fill-opacity="1" r="4" /><circle cx="675.4054054054054" cy="309.6" fill="#8aadf4" fill-opacity="1" r="4" /><circle cx="694.0540540540541" cy="307.0" fill="#8aadf4" fill-opacity="1" r="4" /><circle cx="712.7027027027027" cy="304.4" fill="#8aadf4" fill-opacity="1" r="4" /><circle cx="731.3513513513514" cy="320.0" fill="#8aadf4" fill-opacity="1" r="4" /><circle cx="750.0" cy="320.0" fill="#8aadf4" fill-opacity="1" r="4" /><path d="M 60.0,318.7 C 66.21621621621621,318.7 72.43243243243244,320.0 78.64864864864865,320.0 C 84.86486486486486,320.0 91.08108108108108,320.0 97.29729729729729,320.0 C 103.51351351351352,320.0 109.72972972972973,320.0 115.94594594594595,320.0 C 122.16216216216216,320.0 128.3783783783784,320.0 134.59459459459458,320.0 C 140.8108108108108,320.0 147.027027027027,320.0 153.24324324324323,320.0 C 159.45945945945945,320.0 165.67567567567568,320.0 171.8918918918919,320.0 C 178.10810810810813,320.0 184.32432432432432,320.0 190.54054054054055,320.0 C 196.75675675675677,320.0 202.97297297297297,320.0 209.1891891891892,320.0 C 215.40540540540542,320.0 221.6216216216216,320.0 227.83783783783784,320.0 C 234.05405405405406,320.0 240.27027027027026,320.0 246.48648648648648,320.0 C 252.70270270270268,320.0 258.9189189189189,320.0 265.1351351351351,320.0 C 271.35135135135135,320.0 277.56756756756755,320.0 283.7837837837838,320.0 C 290.0,320.0 296.21621621621625,320.0 302.43243243243245,320.0 C 308.64864864864865,320.0 314.8648648648649,317.4 321.0810810810811,317.4 C 327.2972972972973,317.4 333.51351351351354,320.0 339.72972972972974,320.0 C 345.94594594594594,320.0 352.1621621621622,320.0 358.3783783783784,320.0 C 364.5945945945946,320.0 370.81081081081084,320.0 377.02702702702703,320.0 C 383.2432432432432,320.0 389.4594594594595,320.0 395.6756756756757,320.0 C 401.8918918918919,320.0 408.1081081081081,320.0 414.3243243243243,320.0 C 420.5405405405405,320.0 426.7567567567568,320.0 432.97297297297297,320.0 C 439.18918918918916,320.0 445.4054054054054,320.0 451.6216216216216,320.0 C 457.8378378378378,320.0 464.05405405405406,317.4 470.27027027027026,317.4 C 476.48648648648646,317.4 482.7027027027027,317.4 488.9189189189189,317.4 C 495.13513513513516,317.4 501.35135135135135,309.6 507.5675675675676,309.6 C 513.7837837837839,309.6 520.0,310.9 526.2162162162163,310.9 C 532.4324324324325,310.9 538.6486486486486,316.1 544.8648648648649,316.1 C 551.0810810810812,316.1 557.2972972972973,320.0 563.5135135135135,320.0 C 569.7297297297298,320.0 575.9459459459459,312.2 582.1621621621622,312.2 C 588.3783783783784,312.2 594.5945945945946,316.1 600.8108108108108,316.1 C 607.0270270270271,316.1 613.2432432432432,316.1 619.4594594594595,316.1 C 625.6756756756757,316.1 631.8918918918919,102.9 638.1081081081081,102.9 C 644.3243243243244,102.9 650.5405405405405,140.6 656.7567567567568,140.6 C 662.972972972973,140.6 669.1891891891892,309.6 675.4054054054054,309.6 C 681.6216216216217,309.6 687.8378378378378,307.0 694.0540540540541,307.0 C 700.2702702702703,307.0 706.4864864864865,304.4 712.7027027027027,304.4 C 718.918918918919,304.4 725.1351351351351,320.0 731.3513513513514,320.0 C 737.5675675675676,320.0 743.7837837837837,320.0 750.0,320.0" fill="none" stroke="#8aadf4" stroke-dasharray="1075.66907498377" stroke-dashoffset="1075.66907498377" stroke-linecap="round" stroke-linejoin="round" stroke-opacity="0.4" stroke-width="4"><animate attributeName="stroke-dashoffset" dur="2s" fill="freeze" from="1075.66907498377" repeatCount="1" to="0" /></path><circle cx="60.0" cy="320.0" fill="#cba6f7" fill-opacity="1" r="4" /><circle cx="78.64864864864865" cy="320.0" fill="#cba6f7" fill-opacity="1" r="4" /><circle cx="97.29729729729729" cy="320.0" fill="#cba6f7" fill-opacity="1" r="4" /><circle cx="115.94594594594595" cy="320.0" fill="#cba6f7" fill-opacity="1" r="4" /><circle cx="134.59459459459458" cy="320.0" fill="#cba6f7" fill-opacity="1" r="4" /><circle cx="153.24324324324323" cy="320.0" fill="#cba6f7" fill-opacity="1" r="4" /><circle cx="171.8918918918919" cy="320.0" fill="#cba6f7" fill-opacity="1" r="4" /><circle cx="190.54054054054055" cy="320.0" fill="#cba6f7" fill-opacity="1" r="4" /><circle cx="209.1891891891892" cy="320.0" fill="#cba6f7" fill-opacity="1" r="4" /><circle cx="227.83783783783784" cy="320.0" fill="#cba6f7" fill-opacity="1" r="4" /><circle cx="246.48648648648648" cy="320.0" fill="#cba6f7" fill-opacity="1" r="4" /><circle cx="265.1351351351351" cy="320.0" fill="#cba6f7" fill-opacity="1" r="4" /><circle cx="283.7837837837838" cy="320.0" fill="#cba6f7" fill-opacity="1" r="4" /><circle cx="302.43243243243245" cy="320.0" fill="#cba6f7" fill-opacity="1" r="4" /><circle cx="321.0810810810811" cy="320.0" fill="#cba6f7" fill-opacity="1" r="4" /><circle cx="339.72972972972974" cy="320.0" fill="#cba6f7" fill-opacity="1" r="4" /><circle cx="358.3783783783784" cy="320.0" fill="#cba6f7" fill-opacity="1" r="4" /><circle cx="377.02702702702703" cy="320.0" fill="#cba6f7" fill-opacity="1" r="4" /><circle cx="395.6756756756757" cy="320.0" fill="#cba6f7" fill-opacity="1" r="4" /><circle cx="414.3243243243243" cy="320.0" fill="#cba6f7" fill-opacity="1" r="4" /><circle cx="432.97297297297297" cy="320.0" fill="#cba6f7" fill-opacity="1" r="4" /><circle cx="451.6216216216216" cy="320.0" fill="#cba6f7" fill-opacity="1" r="4" /><circle cx="470.27027027027026" cy="320.0" fill="#cba6f7" fill-opacity="1" r="4" /><circle cx="488.9189189189189" cy="307.0" fill="#cba6f7" fill-opacity="1" r="4" /><circle cx="507.5675675675676" cy="317.4" fill="#cba6f7" fill-opacity="1" r="4" /><circle cx="526.2162162162163" cy="314.8" fill="#cba6f7" fill-opacity="1" r="4" /><circle cx="544.8648648648649" cy="304.4" fill="#cba6f7" fill-opacity="1" r="4" /><circle cx="563.5135135135135" cy="313.5" fill="#cba6f7" fill-opacity="1" r="4" /><circle cx="582.1621621621622" cy="287.5" fill="#cba6f7" fill-opacity="1" r="4" /><circle cx="600.8108108108108" cy="318.7" fill="#cba6f7" fill-opacity="1" r="4" /><circle cx="619.4594594594595" cy="316.1" fill="#cba6f7" fill-opacity="1" r="4" /><circle cx="638.1081081081081" cy="187.4" fill="#cba6f7" fill-opacity="1" r="4" /><circle cx="656.7567567567568" cy="117.19999999999999" fill="#cba6f7" fill-opacity="1" r="4" /><circle cx="675.4054054054054" cy="305.7" fill="#cba6f7" fill-opacity="1" r="4" /><circle cx="694.0540540540541" cy="314.8" fill="#cba6f7" fill-opacity="1" r="4" /><circle cx="712.7027027027027" cy="318.7" fill="#cba6f7" fill-opacity="1" r="4" /><circle cx="731.3513513513514" cy="320.0" fill="#cba6f7" fill-opacity="1" r="4" /><circle cx="750.0" cy="320.0" fill="#cba6f7" fill-opacity="1" r="4" /><path d="M 60.0,320.0 C 66.21621621621621,320.0 72.43243243243244,320.0 78.64864864864865,320.0 C 84.86486486486486,320.0 91.08108108108108,320.0 97.29729729729729,320.0 C 103.51351351351352,320.0 109.72972972972973,320.0 115.94594594594595,320.0 C 122.16216216216216,320.0 128.3783783783784,320.0 134.59459459459458,320.0 C 140.8108108108108,320.0 147.027027027027,320.0 153.24324324324323,320.0 C 159.45945945945945,320.0 165.67567567567568,320.0 171.8918918918919,320.0 C 178.10810810810813,320.0 184.32432432432432,320.0 190.54054054054055,320.0 C 196.75675675675677,320.0 202.97297297297297,320.0 209.1891891891892,320.0 C 215.40540540540542,320.0 221.6216216216216,320.0 227.83783783783784,320.0 C 234.05405405405406,320.0 240.27027027027026,320.0 246.48648648648648,320.0 C 252.70270270270268,320.0 258.9189189189189,320.0 265.1351351351351,320.0 C 271.35135135135135,320.0 277.56756756756755,320.0 283.7837837837838,320.0 C 290.0,320.0 296.21621621621625,320.0 302.43243243243245,320.0 C 308.64864864864865,320.0 314.8648648648649,320.0 321.0810810810811,320.0 C 327.2972972972973,320.0 333.51351351351354,320.0 339.72972972972974,320.0 C 345.94594594594594,320.0 352.1621621621622,320.0 358.3783783783784,320.0 C 364.5945945945946,320.0 370.81081081081084,320.0 377.02702702702703,320.0 C 383.2432432432432,320.0 389.4594594594595,320.0 395.6756756756757,320.0 C 401.8918918918919,320.0 408.1081081081081,320.0 414.3243243243243,320.0 C 420.5405405405405,320.0 426.7567567567568,320.0 432.97297297297297,320.0 C 439.18918918918916,320.0 445.4054054054054,320.0 451.6216216216216,320.0 C 457.8378378378378,320.0 464.05405405405406,320.0 470.27027027027026,320.0 C 476.48648648648646,320.0 482.7027027027027,307.0 488.9189189189189,307.0 C 495.13513513513516,307.0 501.35135135135135,317.4 507.5675675675676,317.4 C 513.7837837837839,317.4 520.0,314.8 526.2162162162163,314.8 C 532.4324324324325,314.8 538.6486486486486,304.4 544.8648648648649,304.4 C 551.0810810810812,304.4 557.2972972972973,313.5 563.5135135135135,313.5 C 569.7297297297298,313.5 575.9459459459459,287.5 582.1621621621622,287.5 C 588.3783783783784,287.5 594.5945945945946,318.7 600.8108108108108,318.7 C 607.0270270270271,318.7 613.2432432432432,316.1 619.4594594594595,316.1 C 625.6756756756757,316.1 631.8918918918919,187.4 638.1081081081081,187.4 C 644.3243243243244,187.4 650.5405405405405,117.19999999999999 656.7567567567568,117.19999999999999 C 662.972972972973,117.19999999999999 669.1891891891892,305.7 675.4054054054054,305.7 C 681.6216216216217,305.7 687.8378378378378,314.8 694.0540540540541,314.8 C 700.2702702702703,314.8 706.4864864864865,318.7 712.7027027027027,318.7 C 718.918918918919,318.7 725.1351351351351,320.0 731.3513513513514,320.0 C 737.5675675675676,320.0 743.7837837837837,320.0 750.0,320.0" fill="none" stroke="#cba6f7" stroke-dasharray="1078.6142251867523" stroke-dashoffset="1078.6142251867523" stroke-linecap="round" stroke-linejoin="round" stroke-opacity="0.4" stroke-width="4"><animate attributeName="stroke-dashoffset" dur="2s" fill="freeze" from="1078.6142251867523" repeatCount="1" to="0" /></path><text fill="#cdd6f4" fill-opacity="1" style="font-size: 12px; font-family: Arial" transform="rotate(45, 60.0, 340)" x="60.0" y="340">26</text><text fill="#cdd6f4" fill-opacity="1" style="font-size: 12px; font-family: Arial" transform="rotate(45, 78.64864864864865, 340)" x="78.64864864864865" y="340">27</text><text fill="#cdd6f4" fill-opacity="1" style="font-size: 12px; font-family: Arial" transform="rotate(45, 97.29729729729729, 340)" x="97.29729729729729" y="340">28</text><text fill="#cdd6f4" fill-opacity="1" style="font-size: 12px; font-family: Arial" transform="rotate(45, 115.94594594594595, 340)" x="115.94594594594595" y="340">29</text><text fill="#cdd6f4" fill-opacity="1" style="font-size: 12px; font-family: Arial" transform="rotate(45, 134.59459459459458, 340)" x="134.59459459459458" y="340">30</text><text fill="#cdd6f4" fill-opacity="1" style="font-size: 12px; font-family: Arial" transform="rotate(45, 153.24324324324323, 340)" x="153.24324324324323" y="340">31</text><text fill="#cdd6f4" fill-opacity="1" style="font-size: 12px; font-family: Arial" transform="rotate(45, 171.8918918918919, 340)" x="171.8918918918919" y="340">01</text><text fill="#cdd6f4" fill-opacity="1" style="font-size: 12px; font-family: Arial" transform="rotate(45, 190.54054054054055, 340)" x="190.54054054054055" y="340">02</text><text fill="#cdd6f4" fill-opacity="1" style="font-size: 12px; font-family: Arial" transform="rotate(45, 209.1891891891892, 340)" x="209.1891891891892" y="340">03</text><text fill="#cdd6f4" fill-opacity="1" style="font-size: 12px; font-family: Arial" transform="rotate(45, 227.83783783783784, 340)" x="227.83783783783784" y="340">04</text><text fill="#cdd6f4" fill-opacity="1" style="font-size: 12px; font-family: Arial" transform="rotate(45, 246.48648648648648, 340)" x="246.48648648648648" y="340">05</text><text fill="#cdd6f4" fill-opacity="1" style="font-size: 12px; font-family: Arial" transform="rotate(45, 265.1351351351351, 340)" x="265.1351351351351" y="340">06</text><text fill="#cdd6f4" fill-opacity="1" style="font-size: 12px; font-family: Arial" transform="rotate(45, 283.7837837837838, 340)" x="283.7837837837838" y="340">07</text><text fill="#cdd6f4" fill-opacity="1" style="font-size: 12px; font-family: Arial" transform="rotate(45, 302.43243243243245, 340)" x="302.43243243243245" y="340">08</text><text fill="#cdd6f4" fill-opacity="1" style="font-size: 12px; font-family: Arial" transform="rotate(45, 321.0810810810811, 340)" x="321.0810810810811" y="340">12</text><text fill="#cdd6f4" fill-opacity="1" style="font-size: 12px; font-family: Arial" transform="rotate(45, 339.72972972972974, 340)" x="339.72972972972974" y="340">13</text><text fill="#cdd6f4" fill-opacity="1" style="font-size: 12px; font-family: Arial" transform="rotate(45, 358.3783783783784, 340)" x="358.3783783783784" y="340">14</text><text fill="#cdd6f4" fill-opacity="1" style="font-size: 12px; font-family: Arial" transform="rotate(45, 377.02702702702703, 340)" x="377.02702702702703" y="340">15</text><text fill="#cdd6f4" fill-opacity="1" style="font-size: 12px; font-family: Arial" transform="rotate(45, 395.6756756756757, 340)" x="395.6756756756757" y="340">16</text><text fill="#cdd6f4" fill-opacity="1" style="font-size: 12px; font-family: Arial" transform="rotate(45, 414.3243243243243, 340)" x="414.3243243243243" y="340">17</text><text fill="#cdd6f4" fill-opacity="1" style="font-size: 12px; font-family: Arial" transform="rotate(45, 432.97297297297297, 340)" x="432.97297297297297" y="340">18</text><text fill="#cdd6f4" fill-opacity="1" style="font-size: 12px; font-family: Arial" transform="rotate(45, 451.6216216216216, 340)" x="451.6216216216216" y="340">19</text><text fill="#cdd6f4" fill-opacity="1" style="font-size: 12px; font-family: Arial" transform="rotate(45, 470.27027027027026, 340)" x="470.27027027027026" y="340">20</text><text fill="#cdd6f4" fill-opacity="1" style="font-size: 12px; font-family: Arial" transform="rotate(45, 488.9189189189189, 340)" x="488.9189189189189" y="340">21</text><text fill="#cdd6f4" fill-opacity="1" style="font-size: 12px; font-family: Arial" transform="rotate(45, 507.5675675675676, 340)" x="507.5675675675676" y="340">22</text><text fill="#cdd6f4" fill-opacity="1" style="font-size: 12px; font-family: Arial" transform="rotate(45, 526.2162162162163, 340)" x="526.2162162162163" y="340">23</text><text fill="#cdd6f4" fill-opacity="1" style="font-size: 12px; font-family: Arial" transform="rotate(45, 544.8648648648649, 340)" x="544.8648648648649" y="340">24</text><text fill="#cdd6f4" fill-opacity="1" style="font-size: 12px; font-family: Arial" transform="rotate(45, 563.5135135135135, 340)" x="563.5135135135135" y="340">25</text><text fill="#cdd6f4" fill-opacity="1" style="font-size: 12px; font-family: Arial" transform="rotate(45, 582.1621621621622, 340)" x="582.1621621621622" y="340">26</text><text fill="#cdd6f4" fill-opacity="1" style="font-size: 12px; font-family: Arial" transform="rotate(45, 600.8108108108108, 340)" x="600.8108108108108" y="340">27</text><text fill="#cdd6f4" fill-opacity="1" style="font-size: 12px; font-family: Arial" transform="rotate(45, 619.4594594594595, 340)" x="619.4594594594595" y="340">28</text><text fill="#cdd6f4" fill-opacity="1" style="font-size: 12px; font-family: Arial" transform="rotate(45, 638.1081081081081, 340)" x="638.1081081081081" y="340">01</text><text fill="#cdd6f4" fill-opacity="1" style="font-size: 12px; font-family: Arial" transform="rotate(45, 656.7567567567568, 340)" x="656.7567567567568" y="340">02</text><text fill="#cdd6f4" fill-opacity="1" style="font-size: 12px; font-family: Arial" transform="rotate(45, 675.4054054054054, 340)" x="675.4054054054054" y="340">03</text><text fill="#cdd6f4" fill-opacity="1" style="font-size: 12px; font-family: Arial" transform="rotate(45, 694.0540540540541, 340)" x="694.0540540540541" y="340">04</text><text fill="#cdd6f4" fill-opacity="1" style="font-size: 12px; font-family: Arial" transform="rotate(45, 712.7027027027027, 340)" x="712.7027027027027" y="340">05</text><text fill="#cdd6f4" fill-opacity="1" style="font-size: 12px; font-family: Arial" transform="rotate(45, 731.3513513513514, 340)" x="731.3513513513514" y="340">06</text><text fill="#cdd6f4" fill-opacity="1" style="font-size: 12px; font-family: Arial" transform="rotate(45, 750.0, 340)" x="750.0" y="340">07</text><text fill="#cdd6f4" fill-opacity="1" style="font-size: 14px; font-family: Arial" text-anchor="middle" x="400.0" y="373.3333333333333">Days</text><text fill="#cdd6f4" fill-opacity="1" style="font-size: 14px; font-family: Arial" text-anchor="middle" transform="rotate(-90, 20.0, 200.0)" x="20.0" y="200.0">Count</text><line stroke="#8aadf4" stroke-opacity="0.4" stroke-width="3" x1="340.0" x2="360.0" y1="388.3333333333333" y2="388.3333333333333" /><text fill="#cdd6f4" fill-opacity="1" style="font-size: 12px; font-family: Arial" x="370.0" y="393.3333333333333">Clones</text><line stroke="#cba6f7" stroke-opacity="0.4" stroke-width="3" x1="440.0" x2="460.0" y1="388.3333333333333" y2="388.3333333333333" /><text fill="#cdd6f4" fill-opacity="1" style="font-size: 12px; font-family: Arial" x="470.0" y="393.3333333333333">Views</text></svg>